# AST/ASF file generated using VICON BodyLanguage
# -----------------------------------------------
:version 1.10
:name VICON
:units
  mass 1.0
  length 0.45
  angle deg
:documentation
   .ast/.asf automatically generated from VICON data using
   VICON BodyBuilder and BodyLanguage model FoxedUp or BRILLIANT.MOD
:root
   order TX TY TZ RX RY RZ
   axis XYZ
   position 0 0 0  
   orientation 0 0 0 
:bonedata
  begin
     id 1 
     name lhipjoint
     direction 0.624716 -0.669793 0.401383 
     length 2.38238 
     axis 0 0 0  XYZ
  end
  begin
     id 2 
     name lfemur
     direction 0.34202 -0.939693 0  
     length 6.4574  
     axis 0 0 20  XYZ
    dof rx ry rz
    limits (-160.0 20.0)
           (-70.0 70.0)
           (-60.0 70.0)
  end
  begin
     id 3 
     name ltibia
     direction 0.34202 -0.939693 0   
     length 7.68739   
     axis 0 0 20   XYZ
    dof rx
    limits (-10.0 170.0)
  end
  begin
     id 4 
     name lfoot
     direction 0.0681309 -0.187188 0.979959   
     length 2.46615   
     axis -90 7.62852e-016 20   XYZ
    dof rx rz
    limits (-45.0 90.0)
           (-70.0 20.0)
  end
  begin
     id 5 
     name ltoes
     direction 1.53566e-011 -4.21819e-011 1   
     length 1.2376   
     axis -90 7.62852e-016 20   XYZ
    dof rx
    limits (-90.0 20.0)
  end
  begin
     id 6 
     name rhipjoint
     direction -0.644473 -0.655875 0.393043   
     length 2.43293  
     axis 0 0 0  XYZ 
  end
  begin
     id 7 
     name rfemur
     direction -0.34202 -0.939693 0   
     length 6.7025   
     axis 0 0 -20   XYZ
    dof rx ry rz
    limits (-160.0 20.0)
           (-70.0 70.0)
           (-70.0 60.0)
  end
  begin
     id 8 
     name rtibia
     direction -0.34202 -0.939693 0   
     length 7.80547   
     axis 0 0 -20   XYZ
    dof rx
    limits (-10.0 170.0)
 end
 begin
     id 9 
     name rfoot
     direction -0.0756734 -0.207911 0.975216   
     length 2.40315  
     axis -90 -7.62852e-016 -20   XYZ
    dof rx rz
    limits (-45.0 90.0)
           (-20.0 70.0)
  end
  begin
     id 10 
     name rtoes
     direction -1.5353e-011 -4.21879e-011 1   
     length 1.20477   
     axis -90 -7.62852e-016 -20   XYZ
    dof rx
    limits (-90.0 20.0)
  end
  begin
     id 11 
     name lowerback
     direction 0.0160353 0.987463 -0.157037   
     length 2.18572   
     axis 0 0 0   XYZ
    dof rx ry rz
    limits (-20.0 45.0)
           (-30.0 30.0)
           (-30.0 30.0)
  end
  begin
     id 12 
     name upperback
     direction -0.00499661 0.999756 0.0215076   
     length 2.18016   
     axis 0 0 0   XYZ
    dof rx ry rz
    limits (-20.0 45.0)
           (-30.0 30.0)
           (-30.0 30.0)
  end
  begin
     id 13 
     name thorax
     direction -0.00921346 0.995333 0.0960619   
     length 2.24923   
     axis 0 0 0   XYZ
    dof rx ry rz
    limits (-20.0 45.0)
           (-30.0 30.0)
           (-30.0 30.0)
  end
  begin
     id 14 
     name lowerneck
     direction 0.0274184 0.991181 0.12965   
     length 1.70911   
     axis 0 0 0   XYZ
    dof rx ry rz
    limits (-20.0 45.0)
           (-30.0 30.0)
           (-30.0 30.0)
  end
  begin
     id 15 
     name upperneck
     direction 0.0015627 0.999959 -0.00893559   
     length 1.69312   
     axis 0 0 0   XYZ
    dof rx ry rz
    limits (-20.0 45.0)
           (-30.0 30.0)
           (-30.0 30.0)
  end
  begin
     id 16
     name head
     direction -0.00230242 0.999856 -0.0168327  
     length 1.80241  
     axis 0 0 0   XYZ
    dof rx ry rz
    limits (-20.0 45.0)
           (-30.0 30.0)
           (-30.0 30.0)
  end
  begin
     id 17 
     name lclavicle
     direction 0.955523 0.290741 -0.0494489  
     length 3.84275  
     axis 0 0 0   XYZ
    dof ry rz
    limits (-20.0 10.0)
           (0.0 20.0)
  end
  begin
     id 18 
     name lhumerus
     direction 1 -4.48967e-011 -3.18382e-028   
     length 5.17714   
     axis 180 -30 -90   XYZ
    dof rx ry rz
    limits (-60.0 90.0)
           (-90.0 90.0)
           (-90.0 90.0)
  end
  begin
     id 19
     name lradius
     direction 1 -4.48968e-011 -2.22911e-027   
     length 3.43679   
     axis 180 -30 -90   XYZ
    dof rx
    limits (-10.0 170.0)
  end
  begin
     id 20
     name lwrist
     direction 1 -4.48951e-011 -6.32245e-027   
     length 1.7184   
     axis 3.57107e-015 90 90   XYZ
    dof ry
    limits (-180.0 0.0)
 end
  begin
     id 21 
     name lhand
     direction 1 -4.48924e-011 -1.26431e-026   
     length 0.573117   
     axis 8.06912e-015 90 90   XYZ
    dof rx rz
    limits (-90.0 90.0)
           (-45.0 45.0)
  end
  begin
     id 22 
     name lfingers
     direction 1 -4.49001e-011 -2.52965e-026   
     length 0.462062   
     axis 1.61381e-014 90 90   XYZ
    dof rx
    limits (0.0 90.0)
  end
  begin
     id 23
     name lthumb
     direction 0.707107 -6.35008e-011 0.707107   
     length 0.663431   
     axis -90 45 -1.62303e-014   XYZ
    dof rx rz
    limits (-45.0 45.0)
           (-45.0 45.0)
  end
  begin
     id 24 
     name rclavicle
     direction -0.963917 0.256881 -0.0698287   
     length 3.73057  
     axis 0 0 0   XYZ 
    dof ry rz
    limits (-10.0 20.0)
           (-20.0 0.0)
  end
  begin
     id 25 
     name rhumerus
     direction -1 -4.48962e-011 -2.73982e-027  
     length 5.23908   
     axis 180 30 90   XYZ
    dof rx ry rz
    limits (-90.0 60.0)
           (-90.0 90.0)
           (-90.0 90.0)
  end
  begin
     id 26 
     name rradius
     direction -1 -4.48968e-011 -4.33218e-027   
     length 3.46485   
     axis 180 30 90   XYZ
    dof rx
    limits (-10.0 170.0)
  end
  begin
     id 27 
     name rwrist
     direction -1 -4.48989e-011 -6.32372e-027   
     length 1.73243   
     axis 3.57107e-015 -90 -90   XYZ
    dof ry
    limits (-180.0 0.0)
  end
  begin
     id 28
     name rhand
     direction -1 -4.48948e-011 -1.26448e-026   
     length 0.608752   
     axis 8.06912e-015 -90 -90   XYZ
    dof rx rz
    limits (-90.0 90.0)
           (-45.0 45.0)
  end
  begin
     id 29
     name rfingers
     direction -1 -4.48962e-011 -2.52913e-026   
     length 0.490792   
     axis 1.61381e-014 -90 -90   XYZ
    dof rx
    limits (0.0 90.0)
  end
  begin
     id 30
     name rthumb
     direction -0.707107 -6.34878e-011 0.707107   
     length 0.704682   
     axis -90 -45 1.62303e-014   XYZ
    dof rx rz
    limits (-45.0 45.0)
           (-45.0 45.0)
  end
:hierarchy
  begin
    root lhipjoint rhipjoint lowerback
    lhipjoint lfemur
    lfemur ltibia
    ltibia lfoot
    lfoot ltoes
    rhipjoint rfemur
    rfemur rtibia
    rtibia rfoot
    rfoot rtoes
    lowerback upperback
    upperback thorax
    thorax lowerneck lclavicle rclavicle
    lowerneck upperneck
    upperneck head
    lclavicle lhumerus
    lhumerus lradius
    lradius lwrist
    lwrist lhand lthumb
    lhand lfingers
    rclavicle rhumerus
    rhumerus rradius
    rradius rwrist
    rwrist rhand rthumb
    rhand rfingers
  end

#!OML:ASF G:\JayActor3\Patient Classification 1\Patient 1\Session 6\male.ASF
:FULLY-SPECIFIED
:DEGREES
136
root 49.7328 15.7912 -26.7369 6.52308 -66.6278 -9.11241
lowerback 0.761364 -0.0253909 8.97371
upperback 4.63523 -0.348605 1.7092
thorax 4.38473 0.0957485 -3.2531
lowerneck -4.68314 1.24385 3.05127
upperneck 7.9242 1.59781 -2.38038
head 3.44153 0.778956 -1.2486
rclavicle 3.49861e-014 1.43125e-014
rhumerus -28.2946 -12.0523 -81.5575
rradius 25.7809
rwrist 4.11036
rhand -20.6111 -4.65751
rfingers 7.12502
rthumb 5.74981 -34.5595
lclavicle 3.49861e-014 1.43125e-014
lhumerus -34.049 8.70753 82.0011
lradius 29.978
lwrist 20.7424
lhand -16.9776 9.27904
lfingers 7.12502
lthumb 9.25699 39.0558
rfemur -5.81006 -6.68404 29.7918
rtibia 29.7099
rfoot -24.3013 -11.6038
rtoes 7.18121
lfemur -15.9476 5.70449 -10.2278
ltibia 35.9782
lfoot -16.1113 1.8094
ltoes -14.4152
137
root 49.7411 15.7918 -26.7392 6.44445 -66.576 -9.05342
lowerback 0.718407 -0.0528408 8.96845
upperback 4.62574 -0.390703 1.74242
thorax 4.39404 0.0739294 -3.21695
lowerneck -4.71648 1.26133 3.04199
upperneck 7.95967 1.62022 -2.36662
head 3.46066 0.790152 -1.24155
rclavicle 5.41688e-014 -4.21423e-014
rhumerus -28.2837 -12.023 -81.5456
rradius 25.856
rwrist 4.00963
rhand -20.6346 -4.62004
rfingers 7.12502
rthumb 5.72719 -34.5226
lclavicle 5.41688e-014 -4.21423e-014
lhumerus -34.042 8.91205 81.9306
lradius 29.6566
lwrist 20.487
lhand -16.82 9.295
lfingers 7.12502
lthumb 9.40904 39.065
rfemur -5.81942 -6.67002 29.778
rtibia 29.7141
rfoot -24.3077 -11.6547
rtoes 7.20769
lfemur -15.7974 5.82264 -10.2469
ltibia 36.3817
lfoot -16.2487 2.70307
ltoes -14.2589
138
root 49.7492 15.7923 -26.741 6.3698 -66.5297 -8.99701
lowerback 0.674472 -0.0742492 8.96663
upperback 4.61178 -0.424189 1.7694
thorax 4.40026 0.0565068 -3.18899
lowerneck -4.73406 1.27578 3.04313
upperneck 7.98809 1.63797 -2.35185
head 3.47429 0.79947 -1.23619
rclavicle 1.80894e-014 -1.90833e-014
rhumerus -28.2837 -12.0202 -81.5342
rradius 25.9304
rwrist 3.92196
rhand -20.6564 -4.57197
rfingers 7.12502
rthumb 5.70608 -34.4751
lclavicle 1.80894e-014 -1.90833e-014
lhumerus -34.0482 9.12614 81.8395
lradius 29.3523
lwrist 20.1709
lhand -16.5952 9.32235
lfingers 7.12502
lthumb 9.62597 39.0824
rfemur -5.83023 -6.64322 29.765
rtibia 29.7207
rfoot -24.3202 -11.7128
rtoes 7.23171
lfemur -15.6376 5.93929 -10.2618
ltibia 36.769
lfoot -16.3948 3.51759
ltoes -13.9949
139
root 49.7569 15.793 -26.7423 6.30415 -66.4894 -8.94719
lowerback 0.628123 -0.0897703 8.96921
upperback 4.59204 -0.449379 1.79104
thorax 4.40279 0.0432864 -3.16884
lowerneck -4.73411 1.28658 3.05554
upperneck 8.00931 1.65043 -2.33901
head 3.48208 0.806511 -1.23369
rclavicle -2.94201e-014 6.36111e-015
rhumerus -28.294 -12.0387 -81.5231
rradius 26.0019
rwrist 3.84594
rhand -20.6756 -4.52074
rfingers 7.12502
rthumb 5.68758 -34.4244
lclavicle -2.94201e-014 6.36111e-015
lhumerus -34.0707 9.32792 81.7365
lradius 29.0643
lwrist 19.838
lhand -16.3404 9.34214
lfingers 7.12502
lthumb 9.87172 39.0907
rfemur -5.84244 -6.60264 29.7546
rtibia 29.728
rfoot -24.3355 -11.7795
rtoes 7.25409
lfemur -15.4685 6.06279 -10.272
ltibia 37.1372
lfoot -16.5529 4.25918
ltoes -13.7099
140
root 49.7643 15.7937 -26.7433 6.2409 -66.4574 -8.89854
lowerback 0.588674 -0.102836 8.97131
upperback 4.56453 -0.469683 1.81008
thorax 4.39371 0.0319352 -3.15101
lowerneck -4.72719 1.29745 3.06328
upperneck 8.03608 1.66282 -2.31799
head 3.49023 0.813712 -1.22767
rclavicle -2.40529e-014 9.54166e-015
rhumerus -28.3153 -12.0637 -81.5115
rradius 26.0693
rwrist 3.78323
rhand -20.6916 -4.48205
rfingers 7.12502
rthumb 5.67207 -34.3861
lclavicle -2.40529e-014 9.54166e-015
lhumerus -34.1045 9.52954 81.6284
lradius 28.7797
lwrist 19.516
lhand -16.1009 9.32815
lfingers 7.12502
lthumb 10.1028 39.0656
rfemur -5.85343 -6.54998 29.7434
rtibia 29.7355
rfoot -24.3535 -11.847
rtoes 7.2791
lfemur -15.2868 6.19145 -10.2791
ltibia 37.4837
lfoot -16.7218 4.92305
ltoes -13.3914
141
root 49.7714 15.7945 -26.7437 6.18086 -66.4318 -8.85121
lowerback 0.550787 -0.114534 8.97173
upperback 4.53324 -0.487595 1.82874
thorax 4.38002 0.0214643 -3.13259
lowerneck -4.72045 1.30726 3.06248
upperneck 8.07058 1.6739 -2.29021
head 3.50082 0.820256 -1.21798
rclavicle 3.16068e-014 -7.95139e-015
rhumerus -28.3406 -12.088 -81.4982
rradius 26.1339
rwrist 3.72657
rhand -20.698 -4.4584
rfingers 7.12502
rthumb 5.66597 -34.3627
lclavicle 3.16068e-014 -7.95139e-015
lhumerus -34.143 9.72937 81.5257
lradius 28.505
lwrist 19.2318
lhand -15.9087 9.2707
lfingers 7.12502
lthumb 10.2882 38.9991
rfemur -5.86514 -6.49702 29.7297
rtibia 29.7443
rfoot -24.3671 -11.913
rtoes 7.28174
lfemur -15.0962 6.32966 -10.2844
ltibia 37.8059
lfoot -16.8901 5.50554
ltoes -13.0758
142
root 49.7781 15.7951 -26.7436 6.12095 -66.4146 -8.8033
lowerback 0.515632 -0.128399 8.96557
upperback 4.502 -0.508081 1.84951
thorax 4.36449 0.00932822 -3.1084
lowerneck -4.72225 1.32145 3.0526
upperneck 8.10811 1.69149 -2.26372
head 3.51421 0.829657 -1.20681
rclavicle -3.0911e-014 9.54166e-015
rhumerus -28.3647 -12.094 -81.4869
rradius 26.1986
rwrist 3.67034
rhand -20.697 -4.43915
rfingers 7.12502
rthumb 5.66688 -34.3434
lclavicle -3.0911e-014 9.54166e-015
lhumerus -34.1773 9.9444 81.4294
lradius 28.236
lwrist 18.9857
lhand -15.7915 9.22772
lfingers 7.12502
lthumb 10.4013 38.9504
rfemur -5.8773 -6.44732 29.7116
rtibia 29.7574
rfoot -24.3783 -11.9645
rtoes 7.28862
lfemur -14.8938 6.47553 -10.2881
ltibia 38.0998
lfoot -17.0545 5.99564
ltoes -12.76
143
root 49.7847 15.7957 -26.743 6.0631 -66.4072 -8.75648
lowerback 0.480534 -0.141806 8.95863
upperback 4.47139 -0.5279 1.86835
thorax 4.34968 -0.00240884 -3.08578
lowerneck -4.73129 1.33675 3.03937
upperneck 8.15195 1.71039 -2.23392
head 3.53114 0.839705 -1.19388
rclavicle -1.31198e-014 7.95139e-015
rhumerus -28.3897 -12.0859 -81.4813
rradius 26.2643
rwrist 3.61121
rhand -20.6742 -4.45233
rfingers 7.12502
rthumb 5.68895 -34.356
lclavicle -1.31198e-014 7.95139e-015
lhumerus -34.2003 10.1587 81.3398
lradius 27.9651
lwrist 18.8001
lhand -15.7581 9.18491
lfingers 7.12502
lthumb 10.4335 38.906
rfemur -5.89212 -6.40819 29.6875
rtibia 29.7763
rfoot -24.3835 -11.9955
rtoes 7.29933
lfemur -14.679 6.62702 -10.2907
ltibia 38.3633
lfoot -17.2037 6.39498
ltoes -12.4748
144
root 49.7911 15.796 -26.7418 6.00867 -66.4065 -8.7109
lowerback 0.44218 -0.153582 8.95063
upperback 4.44333 -0.546032 1.8855
thorax 4.33965 -0.0130514 -3.06429
lowerneck -4.74347 1.35156 3.0284
upperneck 8.1936 1.7285 -2.20579
head 3.54796 0.849365 -1.18194
rclavicle 7.08667e-014 -1.19271e-014
rhumerus -28.4113 -12.0715 -81.4797
rradius 26.3295
rwrist 3.54909
rhand -20.6495 -4.47622
rfingers 7.12502
rthumb 5.71277 -34.3792
lclavicle 7.08667e-014 -1.19271e-014
lhumerus -34.2093 10.3624 81.2598
lradius 27.6991
lwrist 18.6612
lhand -15.78 9.16556
lfingers 7.12502
lthumb 10.4124 38.8877
rfemur -5.91214 -6.37341 29.6601
rtibia 29.8021
rfoot -24.3853 -12.0165
rtoes 7.3073
lfemur -14.4583 6.77948 -10.2935
ltibia 38.5939
lfoot -17.3202 6.71632
ltoes -12.2831
145
root 49.7974 15.7962 -26.74 5.96039 -66.4114 -8.66923
lowerback 0.399913 -0.160652 8.94645
upperback 4.41575 -0.558221 1.89828
thorax 4.33308 -0.0203175 -3.04933
lowerneck -4.75469 1.36219 3.02595
upperneck 8.23448 1.7404 -2.17862
head 3.56429 0.856186 -1.1721
rclavicle 2.21645e-014 -7.95139e-016
rhumerus -28.4343 -12.0655 -81.4798
rradius 26.3933
rwrist 3.48312
rhand -20.621 -4.52019
rfingers 7.12502
rthumb 5.74029 -34.4224
lclavicle 2.21645e-014 -7.95139e-016
lhumerus -34.213 10.5452 81.1825
lradius 27.4435
lwrist 18.542
lhand -15.8102 9.16966
lfingers 7.12502
lthumb 10.3833 38.8933
rfemur -5.93649 -6.33607 29.6313
rtibia 29.8346
rfoot -24.389 -12.0296
rtoes 7.32878
lfemur -14.2293 6.92735 -10.295
ltibia 38.7905
lfoot -17.4073 6.95287
ltoes -12.156
